<svg width="150" height="150" viewBox="0 0 150 150" fill="none" xmlns="http://www.w3.org/2000/svg">
<path d="M105.766 75.7071C106.156 75.3166 106.156 74.6834 105.766 74.2929L99.4018 67.9289C99.0113 67.5384 98.3781 67.5384 97.9876 67.9289C97.5971 68.3195 97.5971 68.9526 97.9876 69.3431L103.644 75L97.9876 80.6569C97.5971 81.0474 97.5971 81.6805 97.9876 82.0711C98.3781 82.4616 99.0113 82.4616 99.4018 82.0711L105.766 75.7071ZM44 76L105.059 76V74L44 74V76Z" fill="#66242E"/>
<circle cx="75" cy="75" r="74.5" stroke="#BBBBBB" stroke-opacity="0.5"/>
<mask id="path-3-inside-1_566_2050" fill="white">
<path d="M75 0C87.3338 1.47079e-07 99.4773 3.04178 110.355 8.8559C121.232 14.67 130.508 23.077 137.36 33.3322C144.213 43.5874 148.43 55.3743 149.639 67.6487C150.848 79.9231 149.011 92.3063 144.291 103.701C139.571 115.096 132.114 125.151 122.58 132.976C113.045 140.8 101.729 146.153 89.6318 148.559C77.535 150.965 65.0314 150.351 53.2287 146.771C41.4259 143.19 30.6883 136.754 21.967 128.033L24.6187 125.381C32.9039 133.667 43.1046 139.781 54.3172 143.182C65.5298 146.583 77.4082 147.167 88.9002 144.881C100.392 142.595 111.143 137.51 120.201 130.077C129.258 122.644 136.342 113.091 140.826 102.266C145.31 91.441 147.055 79.677 145.907 68.0163C144.758 56.3556 140.752 45.1581 134.242 35.4156C127.733 25.6732 118.921 17.6865 108.587 12.1631C98.2534 6.63969 86.7171 3.75 75 3.75V0Z"/>
</mask>
<path d="M75 0C87.3338 1.47079e-07 99.4773 3.04178 110.355 8.8559C121.232 14.67 130.508 23.077 137.36 33.3322C144.213 43.5874 148.43 55.3743 149.639 67.6487C150.848 79.9231 149.011 92.3063 144.291 103.701C139.571 115.096 132.114 125.151 122.58 132.976C113.045 140.8 101.729 146.153 89.6318 148.559C77.535 150.965 65.0314 150.351 53.2287 146.771C41.4259 143.19 30.6883 136.754 21.967 128.033L24.6187 125.381C32.9039 133.667 43.1046 139.781 54.3172 143.182C65.5298 146.583 77.4082 147.167 88.9002 144.881C100.392 142.595 111.143 137.51 120.201 130.077C129.258 122.644 136.342 113.091 140.826 102.266C145.31 91.441 147.055 79.677 145.907 68.0163C144.758 56.3556 140.752 45.1581 134.242 35.4156C127.733 25.6732 118.921 17.6865 108.587 12.1631C98.2534 6.63969 86.7171 3.75 75 3.75V0Z" fill="#66242E" stroke="#66242E" stroke-width="2" mask="url(#path-3-inside-1_566_2050)"/>
</svg>
