<svg width="631" height="204" viewBox="0 0 631 204" fill="none" xmlns="http://www.w3.org/2000/svg">
<path d="M-88.9787 200.92C-84.2415 202.384 -79.4182 203.073 -74.5087 203.073H584.48C585.465 203.073 586.453 203.085 587.443 203.096C591.903 203.147 596.388 203.199 600.759 202.212C615.057 199.111 629.01 187.053 630.13 169.396L-88.9787 200.92ZM-88.9787 200.92C-99.3145 197.819 -106.722 187.57 -108.53 176.976L-88.9787 200.92ZM-81.2269 127.45C-86.7393 134.255 -92.424 140.973 -98.1948 147.519L-97.8189 147.848C-97.8191 147.849 -97.8193 147.849 -97.8195 147.849C-105.183 156.241 -110.068 165.049 -108.038 176.891L-108.038 176.891C-106.253 187.344 -98.9483 197.407 -88.8351 200.441L-88.8311 200.442C-84.144 201.891 -79.3706 202.573 -74.5087 202.573H-73.2218H-71.9349H-70.6479H-69.361H-68.0741H-66.7872H-65.5002H-64.2133H-62.9264H-61.6394H-60.3525H-59.0655H-57.7786H-56.4917H-55.2047H-53.9178H-52.6308H-51.3439H-50.0569H-48.7699H-47.483H-46.196H-44.9091H-43.6221H-42.3351H-41.0482H-39.7612H-38.4742H-37.1873H-35.9003H-34.6133H-33.3263H-32.0394H-30.7524H-29.4654H-28.1784H-26.8914H-25.6044H-24.3174H-23.0304H-21.7435H-20.4565H-19.1695H-17.8825H-16.5955H-15.3085H-14.0215H-12.7345H-11.4475H-10.1604H-8.87344H-7.58643H-6.29942H-5.0124H-3.72539H-2.43837H-1.15135H0.135666H1.42269H2.70972H3.99674H5.28377H6.57079H7.85782H9.14485H10.4319H11.7189H13.006H14.293H15.58H16.8671H18.1541H19.4411H20.7282H22.0152H23.3023H24.5893H25.8764H27.1634H28.4505H29.7375H31.0246H32.3116H33.5987H34.8858H36.1728H37.4599H38.7469H40.034H41.3211H42.6081H43.8952H45.1823H46.4693H47.7564H49.0435H50.3306H51.6176H52.9047H54.1918H55.4789H56.7659H58.053H59.3401H60.6272H61.9143H63.2014H64.4884H65.7755H67.0626H68.3497H69.6368H70.9239H72.211H73.4981H74.7852H76.0723H77.3594H78.6465H79.9336H81.2207H82.5078H83.7949H85.082H86.3691H87.6562H88.9433H90.2304H91.5175H92.8046H94.0917H95.3789H96.666H97.9531H99.2402H100.527H101.814H103.102H104.389H105.676H106.963H108.25H109.537H110.824H112.111H113.399H114.686H115.973H117.26H118.547H119.834H121.121H122.408H123.696H124.983H126.27H127.557H128.844H130.131H131.418H132.705H133.993H135.28H136.567H137.854H139.141H140.428H141.715H143.003H144.29H145.577H146.864H148.151H149.438H150.725H152.013H153.3H154.587H155.874H157.161H158.448H159.736H161.023H162.31H163.597H164.884H166.171H167.458H168.746H170.033H171.32H172.607H173.894H175.181H176.469H177.756H179.043H180.33H181.617H182.904H184.191H185.479H186.766H188.053H189.34H190.627H191.914H193.202H194.489H195.776H197.063H198.35H199.637H200.925H202.212H203.499H204.786H206.073H207.36H208.648H209.935H211.222H212.509H213.796H215.083H216.371H217.658H218.945H220.232H221.519H222.806H224.094H225.381H226.668H227.955H229.242H230.529H231.817H233.104H234.391H235.678H236.965H238.252H239.54H240.827H242.114H243.401H244.688H245.975H247.263H248.55H249.837H251.124H252.411H253.699H254.986H256.273H257.56H258.847H260.134H261.422H262.709H263.996H265.283H266.57H267.857H269.145H270.432H271.719H273.006H274.293H275.58H276.868H278.155H279.442H280.729H282.016H283.303H284.591H285.878H287.165H288.452H289.739H291.026H292.314H293.601H294.888H296.175H297.462H298.749H300.037H301.324H302.611H303.898H305.185H306.472H307.76H309.047H310.334H311.621H312.908H314.195H315.483H316.77H318.057H319.344H320.631H321.918H323.206H324.493H325.78H327.067H328.354H329.641H330.929H332.216H333.503H334.79H336.077H337.364H338.651H339.939H341.226H342.513H343.8H345.087H346.374H347.662H348.949H350.236H351.523H352.81H354.097H355.384H356.672H357.959H359.246H360.533H361.82H363.107H364.395H365.682H366.969H368.256H369.543H370.83H372.117H373.404H374.692H375.979H377.266H378.553H379.84H381.127H382.414H383.702H384.989H386.276H387.563H388.85H390.137H391.424H392.711H393.999H395.286H396.573H397.86H399.147H400.434H401.721H403.008H404.296H405.583H406.87H408.157H409.444H410.731H412.018H413.305H414.593H415.88H417.167H418.454H419.741H421.028H422.315H423.602H424.889H426.177H427.464H428.751H430.038H431.325H432.612H433.899H435.186H436.473H437.76H439.047H440.335H441.622H442.909H444.196H445.483H446.77H448.057H449.344H450.631H451.918H453.205H454.493H455.78H457.067H458.354H459.641H460.928H462.215H463.502H464.789H466.076H467.363H468.65H469.937H471.224H472.512H473.799H475.086H476.373H477.66H478.947H480.234H481.521H482.808H484.095H485.382H486.669H487.956H489.243H490.53H491.817H493.104H494.391H495.678H496.965H498.253H499.539H500.827H502.114H503.401H504.688H505.975H507.262H508.549H509.836H511.123H512.41H513.697H514.984H516.271H517.558H518.845H520.132H521.419H522.706H523.993H525.28H526.567H527.854H529.141H530.428H531.715H533.002H534.289H535.576H536.863H538.15H539.437H540.724H542.011H543.298H544.585H545.872H547.159H548.446H549.733H551.02H552.307H553.594H554.88H556.167H557.454H558.741H560.028H561.315H562.602H563.889H565.176H566.463H567.75H569.037H570.324H571.611H572.898H574.185H575.472H576.759H578.045H579.332H580.619H581.906H583.193H584.48C585.478 202.573 586.475 202.585 587.47 202.596C591.927 202.647 596.341 202.697 600.649 201.724L600.653 201.723C614.781 198.659 628.527 186.752 629.63 169.365L-80.8406 127.768M-81.2269 127.45L-80.8406 127.768M-81.2269 127.45L-80.8384 127.765C-80.8391 127.766 -80.8399 127.767 -80.8406 127.768M-81.2269 127.45C-79.2459 125.038 -77.2649 123.919 -73.9919 123.919M-80.8406 127.768C-79.8773 126.595 -78.9386 125.766 -77.8687 125.227C-76.8024 124.688 -75.571 124.419 -73.9957 124.419M-73.9919 123.919L-73.9957 124.419M-73.9919 123.919V124.419C-73.9932 124.419 -73.9945 124.419 -73.9957 124.419M-73.9919 123.919C-57.0076 124.048 -40.0233 124.032 -23.0027 124.016C-17.3224 124.01 -11.6381 124.005 -5.94839 124.005H-1.67483C-1.80602 124.172 -1.93704 124.339 -2.06789 124.505L-73.9957 124.419" stroke="#66242E" stroke-opacity="0.35"/>
</svg>
