<svg width="644" height="423" viewBox="0 0 644 423" fill="none" xmlns="http://www.w3.org/2000/svg">
<path d="M613.499 609.59L613.497 609.59C604.51 611.429 595.369 611.372 586.177 611.315C583.806 611.3 581.432 611.285 579.055 611.303C578.5 611.302 578.039 611.223 577.651 611.046C577.269 610.872 576.93 610.593 576.633 610.147L576.626 610.137L576.618 610.127C569.505 600.542 562.349 590.998 555.092 581.321C552.177 577.433 549.246 573.524 546.295 569.582H575.786H576.076L576.22 569.33C576.423 568.976 576.529 568.641 576.544 568.318C576.559 567.992 576.481 567.713 576.365 567.475C576.254 567.245 576.106 567.05 575.987 566.897C575.918 566.809 575.861 566.737 575.813 566.672C575.77 566.614 575.734 566.561 575.704 566.508L575.699 566.5L575.694 566.492C562.43 545.218 549.187 523.943 535.944 502.669C522.702 481.395 509.459 460.12 496.195 438.846C484.575 420.168 472.933 401.511 461.292 382.854L461.268 382.817C449.619 364.148 437.97 345.48 426.343 326.789L426.342 326.789C404.982 292.509 383.535 258.142 362.088 223.862C359.317 219.424 356.546 214.991 353.776 210.559C343.803 194.603 333.842 178.667 323.934 162.625L323.929 162.617C323.538 162.01 323.187 161.521 322.851 161.18C322.521 160.846 322.132 160.579 321.667 160.579C321.199 160.579 320.815 160.849 320.493 161.187C320.168 161.529 319.832 162.021 319.463 162.628L319.406 162.723C297.978 198.005 276.551 233.287 255.124 268.483C245.391 284.46 235.679 300.46 225.968 316.458L225.965 316.463C216.255 332.46 206.545 348.457 196.813 364.433C190.097 375.453 183.403 386.474 176.709 397.494L176.701 397.508C170.004 408.532 163.308 419.557 156.59 430.581L156.588 430.584C156.089 431.416 155.598 432.01 154.991 432.403C154.391 432.79 153.631 433.011 152.541 433.012C152.54 433.012 152.539 433.012 152.538 433.012L151.778 433.008C101.56 432.751 51.4266 432.494 1.20756 432.323H1.20586C1.17789 432.323 1.13548 432.315 0.945124 432.281L0.915922 432.276C0.89047 432.272 0.863599 432.267 0.835184 432.262C2.10116 430.252 3.35956 428.254 4.61172 426.266C10.4552 416.988 16.1628 407.926 21.8703 398.808C40.9204 368.491 59.992 338.153 79.0636 307.815L79.1471 307.682L79.1736 307.64C98.2642 277.271 117.355 246.903 136.424 216.555C144.751 203.334 153.077 190.105 161.406 176.874C182.971 142.612 204.549 108.331 226.172 74.0953L226.173 74.0943C238.402 54.6304 250.804 35.1661 263.207 15.787L263.207 15.7866C267.75 8.67218 273.246 2.62532 281.988 1.19644L281.99 1.19609C288.362 0.126965 293.841 0.223401 298.53 1.94744C303.205 3.66662 307.148 7.02433 310.416 12.584L310.417 12.586C316.482 22.798 322.54 33.0102 328.598 43.2207C344.304 69.6955 360.003 96.1586 375.791 122.577C384.103 136.573 392.458 150.569 400.812 164.565L400.818 164.575C409.171 178.568 417.523 192.561 425.833 206.553C434.532 221.195 443.23 235.815 451.929 250.435L451.931 250.437L451.948 250.466C460.641 265.077 469.335 279.688 478.028 294.321L478.028 294.321L546.761 409.823L547.191 409.567L546.761 409.823C577.851 462.012 608.854 514.287 639.858 566.563L639.868 566.581L640.298 566.326L639.868 566.581C644.652 574.637 642.836 582.794 639.491 591.029C634.76 602.687 624.973 607.278 613.499 609.59Z" stroke="#66242E" stroke-opacity="0.35"/>
</svg>
