<svg width="34" height="34" viewBox="0 0 34 34" fill="none" xmlns="http://www.w3.org/2000/svg">
<path fill-rule="evenodd" clip-rule="evenodd" d="M2.38567 2.38567C0 4.77133 0 8.6122 0 16.2917V17.7083C0 25.3867 0 29.2287 2.38567 31.6143C4.77133 34 8.6122 34 16.2917 34H17.7083C25.3867 34 29.2287 34 31.6143 31.6143C34 29.2287 34 25.3878 34 17.7083V16.2917C34 8.61333 34 4.77133 31.6143 2.38567C29.2287 0 25.3878 0 17.7083 0H16.2917C8.61333 0 4.77133 0 2.38567 2.38567ZM6.72972 10.625H9.20832C9.84185 10.625 10.0799 10.9027 10.3179 11.5895C11.5305 15.1209 13.5751 18.2081 14.4149 18.2081C14.7311 18.2081 14.875 18.0631 14.875 17.2618V13.6113C14.8182 12.5722 14.4552 12.1226 14.1863 11.7897C14.0202 11.5842 13.8901 11.423 13.8901 11.1951C13.8901 10.9174 14.127 10.625 14.5203 10.625H18.4167C18.9425 10.625 19.125 10.9061 19.125 11.5362V16.4481C19.125 16.9728 19.3528 17.1575 19.5103 17.1575C19.8254 17.1575 20.0883 16.9728 20.6663 16.3948C22.4525 14.399 23.7127 11.3265 23.7127 11.3265C23.8703 10.9582 24.1615 10.625 24.7917 10.625H27.2703C28.0205 10.625 28.1792 11.0115 28.0205 11.5362C27.7055 12.9812 24.6851 17.2357 24.6851 17.2357C24.4222 17.6562 24.3168 17.8659 24.6851 18.3385C24.8151 18.5205 25.0924 18.7924 25.4095 19.1031C25.7338 19.421 26.0996 19.7796 26.3919 20.1246C27.4573 21.3225 28.2596 22.3335 28.4829 23.0293C28.688 23.7286 28.3333 24.0833 27.625 24.0833H25.1453C24.4814 24.0833 24.1474 23.7115 23.425 22.9075C23.1189 22.5668 22.743 22.1484 22.2428 21.6478C20.7706 20.23 20.1416 20.0464 19.7733 20.0464C19.2746 20.0464 19.125 20.1881 19.125 20.8964V23.12C19.125 23.7286 18.9301 24.0833 17.3536 24.0833C14.7277 24.0833 11.8411 22.4887 9.79312 19.5466C6.71952 15.2399 5.87972 11.9827 5.87972 11.3265C5.87972 10.9582 6.02139 10.625 6.72972 10.625Z" fill="white" fill-opacity="0.5"/>
</svg>
