<svg width="34" height="34" viewBox="0 0 34 34" fill="none" xmlns="http://www.w3.org/2000/svg">
<path fill-rule="evenodd" clip-rule="evenodd" d="M34 17C34 26.3888 26.3888 34 17 34C7.61116 34 0 26.3888 0 17C0 7.61116 7.61116 0 17 0C26.3888 0 34 7.61116 34 17ZM17.6092 12.5501C15.9557 13.2378 12.651 14.6613 7.69518 16.8205C6.89043 17.1405 6.46886 17.4536 6.43049 17.7597C6.36563 18.277 7.01351 18.4808 7.89574 18.7582C8.01575 18.7959 8.1401 18.835 8.26758 18.8765C9.13557 19.1586 10.3032 19.4887 10.9102 19.5018C11.4608 19.5137 12.0753 19.2867 12.7537 18.8208C17.3841 15.6952 19.7744 14.1153 19.9244 14.0813C20.0303 14.0572 20.177 14.027 20.2764 14.1154C20.3758 14.2037 20.366 14.371 20.3555 14.4159C20.2913 14.6895 17.7481 17.0539 16.4321 18.2775C16.0218 18.6589 15.7308 18.9295 15.6713 18.9912C15.538 19.1297 15.4022 19.2606 15.2716 19.3864C14.4653 20.1638 13.8605 20.7468 15.3051 21.6987C15.9993 22.1562 16.5548 22.5345 17.109 22.9119C17.7142 23.324 18.3179 23.7351 19.099 24.2471C19.2979 24.3776 19.488 24.513 19.6731 24.645C20.3774 25.1471 21.0102 25.5983 21.792 25.5263C22.2463 25.4845 22.7155 25.0574 22.9538 23.7834C23.517 20.7727 24.624 14.2494 24.8798 11.5613C24.9022 11.3258 24.874 11.0244 24.8514 10.8921C24.8287 10.7598 24.7814 10.5712 24.6094 10.4317C24.4058 10.2664 24.0913 10.2316 23.9507 10.234C23.3113 10.2453 22.3303 10.5864 17.6092 12.5501Z" fill="#66242E"/>
</svg>
