<svg width="34" height="34" viewBox="0 0 34 34" fill="none" xmlns="http://www.w3.org/2000/svg">
<path d="M33.6613 10.2C33.6613 10.2 33.3293 7.85591 32.3066 6.82661C31.0117 5.47192 29.5641 5.46528 28.9 5.3856C24.1453 5.04028 17.0066 5.04028 17.0066 5.04028H16.9934C16.9934 5.04028 9.85469 5.04028 5.1 5.3856C4.43594 5.46528 2.98828 5.47192 1.69336 6.82661C0.670703 7.85591 0.345312 10.2 0.345312 10.2C0.345312 10.2 0 12.9559 0 15.7051V18.2817C0 21.0309 0.338672 23.7868 0.338672 23.7868C0.338672 23.7868 0.670703 26.1309 1.68672 27.1602C2.98164 28.5149 4.68164 28.4684 5.43867 28.6145C8.16133 28.8735 17 28.9532 17 28.9532C17 28.9532 24.1453 28.9399 28.9 28.6012C29.5641 28.5215 31.0117 28.5149 32.3066 27.1602C33.3293 26.1309 33.6613 23.7868 33.6613 23.7868C33.6613 23.7868 34 21.0375 34 18.2817V15.7051C34 12.9559 33.6613 10.2 33.6613 10.2ZM13.4871 21.4094V11.8536L22.6711 16.6481L13.4871 21.4094Z" fill="#66242E"/>
</svg>
